<?xml version="1.0" encoding="UTF-8" standalone="no"?>
<svg
   xmlns:dc="http://purl.org/dc/elements/1.1/"
   xmlns:cc="http://creativecommons.org/ns#"
   xmlns:rdf="http://www.w3.org/1999/02/22-rdf-syntax-ns#"
   xmlns:svg="http://www.w3.org/2000/svg"
   xmlns="http://www.w3.org/2000/svg"
   xmlns:sodipodi="http://sodipodi.sourceforge.net/DTD/sodipodi-0.dtd"
   xmlns:inkscape="http://www.inkscape.org/namespaces/inkscape"
   width="63.931"
   height="63.93"
   viewBox="0 0 63.931 63.93"
   version="1.1"
   id="svg21"
   sodipodi:docname="ui-ux.svg"
   inkscape:version="0.92.4 (5da689c313, 2019-01-14)">
  <metadata
     id="metadata27">
    <rdf:RDF>
      <cc:Work
         rdf:about="">
        <dc:format>image/svg+xml</dc:format>
        <dc:type
           rdf:resource="http://purl.org/dc/dcmitype/StillImage" />
        <dc:title></dc:title>
      </cc:Work>
    </rdf:RDF>
  </metadata>
  <defs
     id="defs25">
    <filter
       inkscape:label="Opacity"
       style="color-interpolation-filters:sRGB;"
       id="filter87">
      <feColorMatrix
         values="1 0 0 0 0 0 1 0 0 0 0 0 1 0 0 0 0 0 5 -1 "
         result="colormatrix"
         id="feColorMatrix83" />
      <feComposite
         in2="colormatrix"
         operator="arithmetic"
         k2="1"
         result="fbSourceGraphic"
         id="feComposite85" />
      <feColorMatrix
         result="fbSourceGraphicAlpha"
         in="fbSourceGraphic"
         values="0 0 0 -1 0 0 0 0 -1 0 0 0 0 -1 0 0 0 0 1 0"
         id="feColorMatrix89" />
      <feColorMatrix
         id="feColorMatrix91"
         values="1 0 0 0 0 0 1 0 0 0 0 0 1 0 0 0 0 0 5 -1 "
         result="colormatrix"
         in="fbSourceGraphic" />
      <feComposite
         in2="colormatrix"
         id="feComposite93"
         operator="arithmetic"
         k2="1"
         result="composite" />
    </filter>
  </defs>
  <sodipodi:namedview
     pagecolor="#ffffff"
     bordercolor="#666666"
     borderopacity="1"
     objecttolerance="10"
     gridtolerance="10"
     guidetolerance="10"
     inkscape:pageopacity="0"
     inkscape:pageshadow="2"
     inkscape:window-width="1366"
     inkscape:window-height="705"
     id="namedview23"
     showgrid="false"
     inkscape:zoom="3.6915376"
     inkscape:cx="31.9655"
     inkscape:cy="8.9477186"
     inkscape:window-x="-8"
     inkscape:window-y="-8"
     inkscape:window-maximized="1"
     inkscape:current-layer="svg21" />
  <path
     style="fill:#004a72;stroke-width:0.17130244;fill-opacity:0.93969852"
     d="m 7.852237,56.417856 0.0469,-2.695713 0.8516,-0.238712 c 0.46838,-0.131291 1.86522,-0.546367 3.10408,-0.922391 1.23886,-0.376024 2.29272,-0.68368 2.3419,-0.68368 0.0492,0 0.0894,1.628146 0.0894,3.618104 v 3.618103 h -3.24041 -3.2404 z m 10.01062,-1.584075 v -4.279784 l 3.02318,-1.237984 c 1.66275,-0.680891 3.11898,-1.283035 3.23608,-1.338094 0.16799,-0.07899 0.2129,1.084933 0.2129,5.517769 v 5.617879 h -3.23608 -3.23608 z m 9.87855,-2.151662 v -6.43145 l 0.89063,-0.417104 c 0.48984,-0.229408 1.94073,-0.979204 3.22419,-1.666213 1.28346,-0.687009 2.37724,-1.249107 2.43062,-1.249107 0.0534,0 0.097,3.643948 0.097,8.097661 v 8.097661 h -3.32124 -3.32124 z m 10.04888,-2.759516 v -9.190964 l 2.00126,-1.342448 c 1.10069,-0.738346 2.51743,-1.719445 3.14831,-2.180219 0.63087,-0.460774 1.18654,-0.837772 1.23482,-0.837772 0.0483,0 0.0878,5.117033 0.0878,11.371184 v 11.371183 h -3.23608 -3.23608 z m 9.87855,-3.615862 V 33.499914 l 2.17158,-1.91337 c 1.19437,-1.052355 2.62904,-2.383351 3.18817,-2.957769 0.55912,-0.574419 1.07647,-1.044399 1.14966,-1.044399 0.0732,0 0.13307,7.094068 0.13307,15.764596 v 15.764595 h -3.32124 -3.32124 z m -40.5341,5.209551 c 11.1879,-6.323948 22.17558,-14.044492 30.13153,-21.172066 3.56585,-3.194572 10.23225,-10.119774 10.23225,-10.629481 0,-0.08233 -0.68441,-0.729411 -1.52092,-1.437965 -0.83651,-0.708554 -1.52631,-1.329599 -1.53288,-1.3801 -0.007,-0.0505 1.73169,-0.429477 3.86282,-0.842168 2.13113,-0.41269 5.33101,-1.038549 7.11086,-1.390797 1.77984,-0.352248 3.24903,-0.632098 3.26487,-0.621889 0.0158,0.01021 -0.0756,1.028384 -0.20328,2.262611 -0.12763,1.234227 -0.43191,4.296508 -0.67616,6.805067 -0.24425,2.50856 -0.46173,4.626393 -0.48329,4.706296 -0.0216,0.07991 -0.68286,-0.404662 -1.46954,-1.076816 -0.78669,-0.672153 -1.50389,-1.222096 -1.59379,-1.222096 -0.0899,0 -1.28652,1.108729 -2.65918,2.463839 -9.84037,9.714603 -22.79275,17.436386 -37.4913,22.351085 -3.01741,1.008919 -8.64529,2.579292 -9.24363,2.579292 -0.10778,0 0.91446,-0.627666 2.27164,-1.394812 z m 7.97731,-13.002494 c -2.95584,-0.541112 -5.20563,-1.739517 -7.13797,-3.802229 -1.89016,-2.017686 -3.00622,-4.051594 -3.47028,-6.324263 -0.34667,-1.697778 -0.33352,-2.781328 0.0568,-4.67947 0.71715,-3.487428 2.74961,-6.490161 5.72301,-8.455102 1.28965,-0.852259 1.3092,-0.880307 1.19162,-1.710047 -0.20538,-1.449266 -1.75989,-4.1672042 -3.31969,-5.8041922 l -0.80511,-0.844954 0.49987,-0.261488 c 0.27494,-0.143818 1.16483,-0.759404 1.97755,-1.367968 2.24541,-1.6813633 3.40574,-1.9522411 5.5076,-1.2857522 1.43574,0.455265 2.34334,0.4346228 4.53005,-0.1030293 1.79283,-0.4408083 3.96875,-0.6283578 4.23114,-0.3646956 0.0728,0.073188 -0.0282,0.4996078 -0.22448,0.9475987 -0.19629,0.4479907 -0.67905,1.5510714 -1.07279,2.4512904 -1.01597,2.322835 -2.07158,5.6049472 -2.10112,6.5327882 -0.0244,0.766341 -0.0102,0.789565 0.48064,0.789565 0.4914,0 0.51654,-0.0416 0.885,-1.464471 0.48176,-1.860437 1.42871,-4.4639252 2.36174,-6.4932552 l 0.72781,-1.5829703 0.99592,0.098321 c 0.54775,0.054076 1.08647,0.146275 1.19714,0.2048861 0.13395,0.070936 -0.27894,0.9382942 -1.23493,2.5942402 -1.43963,2.4936792 -2.28826,4.4197922 -2.63306,5.9761522 -0.10566,0.476947 -0.11922,0.854971 -0.0317,0.884478 0.0841,0.02834 0.75898,0.431159 1.49985,0.895148 3.19673,2.002053 5.15288,4.325278 6.24089,7.411986 0.4762,1.350987 0.60208,4.67505 0.23654,6.24596 -1.54707,6.64854 -8.81172,10.884519 -16.31205,9.511473 z m 2.64743,-5.344067 c 0.0569,-0.149889 0.10338,-0.566101 0.10338,-0.924913 0,-0.633521 0.0202,-0.655127 0.69844,-0.747149 0.38413,-0.05212 1.05333,-0.316717 1.48708,-0.587992 1.38672,-0.867264 1.96981,-2.187002 1.56706,-3.546818 -0.34826,-1.175836 -1.27627,-1.815766 -3.2842,-2.26469 l -0.46838,-0.104717 v -1.959746 -1.959748 l 0.70993,0.161357 c 0.75811,0.172308 1.67455,0.650027 1.67455,0.872908 0,0.269788 0.63614,0.126582 0.93837,-0.211244 0.30098,-0.336429 0.29807,-0.359373 -0.10134,-0.798109 -0.53018,-0.582381 -1.96091,-1.263732 -2.65818,-1.26589 -0.51763,-0.0016 -0.54626,-0.03685 -0.59612,-0.733919 -0.0521,-0.728676 -0.0559,-0.732492 -0.77623,-0.785215 l -0.72386,-0.05298 v 0.785215 c 0,0.632322 -0.058,0.785542 -0.29806,0.786898 -0.54679,0.0031 -2.00958,0.803801 -2.46196,1.347645 -0.90751,1.090989 -1.03327,2.758508 -0.281,3.725927 0.41038,0.52775 1.41518,1.077365 2.31452,1.266011 l 0.64134,0.134529 0.0479,2.117994 0.0479,2.117993 -0.5589,-0.120373 c -0.30739,-0.0662 -1.03942,-0.278134 -1.62673,-0.470953 -0.5873,-0.192819 -1.09842,-0.319633 -1.13581,-0.281809 -0.0374,0.03783 -0.11921,0.275211 -0.18181,0.527525 -0.10411,0.419593 -0.0435,0.49062 0.71002,0.832073 0.45311,0.205325 1.22621,0.460534 1.71801,0.567131 l 0.89418,0.193813 v 0.711026 c 0,0.391064 0.0511,0.762714 0.11355,0.825886 0.23694,0.23968 1.3816,0.118251 1.48627,-0.157667 z m 0.10338,-4.637756 c 0,-1.708801 0.0194,-1.809052 0.3491,-1.809052 0.43636,0 1.37121,0.479623 1.64674,0.844858 0.29764,0.394539 0.26535,1.422623 -0.0594,1.891657 -0.27899,0.402922 -1.1887,0.881589 -1.67547,0.881589 -0.21781,0 -0.26095,-0.299011 -0.26095,-1.809052 z m -2.39939,-4.097076 c -1.34917,-0.919727 -1.24721,-2.389818 0.21895,-3.156771 0.25318,-0.132438 0.50245,-0.240797 0.55394,-0.240797 0.0515,0 0.0936,0.852839 0.0936,1.895197 0,1.042359 -0.0653,1.895198 -0.14513,1.895198 -0.0798,0 -0.40444,-0.176772 -0.72138,-0.392827 z"
     id="path3812"
     inkscape:connector-curvature="0" />
</svg>
